<?xml version="1.0" encoding="UTF-8" standalone="no"?>
<svg
   xmlns:dc="http://purl.org/dc/elements/1.1/"
   xmlns:cc="http://creativecommons.org/ns#"
   xmlns:rdf="http://www.w3.org/1999/02/22-rdf-syntax-ns#"
   xmlns:svg="http://www.w3.org/2000/svg"
   xmlns="http://www.w3.org/2000/svg"
   xmlns:sodipodi="http://sodipodi.sourceforge.net/DTD/sodipodi-0.dtd"
   xmlns:inkscape="http://www.inkscape.org/namespaces/inkscape"
   width="210mm"
   height="297mm"
   viewBox="0 0 210 297"
   version="1.1"
   id="svg52"
   inkscape:version="1.0.2 (e86c8708, 2021-01-15)"
   sodipodi:docname="Alena.svg">
  <defs
     id="defs46">
    <inkscape:perspective
       sodipodi:type="inkscape:persp3d"
       inkscape:vp_x="0 : 148.5 : 1"
       inkscape:vp_y="0 : 1000 : 0"
       inkscape:vp_z="210 : 148.5 : 1"
       inkscape:persp3d-origin="105 : 99 : 1"
       id="perspective984" />
    <inkscape:path-effect
       effect="powerstroke"
       id="path-effect131"
       is_visible="true"
       lpeversion="1"
       offset_points="0.62417319,18.825897"
       sort_points="true"
       interpolator_type="CentripetalCatmullRom"
       interpolator_beta="0.75"
       start_linecap_type="round"
       linejoin_type="spiro"
       miter_limit="4"
       scale_width="1"
       end_linecap_type="round" />
    <inkscape:path-effect
       effect="simplify"
       id="path-effect129"
       is_visible="true"
       lpeversion="1"
       steps="1"
       threshold="0.0032025118"
       smooth_angles="0"
       helper_size="0"
       simplify_individual_paths="false"
       simplify_just_coalesce="false"
       step="1" />
    <inkscape:path-effect
       effect="powerstroke"
       id="path-effect124"
       is_visible="true"
       lpeversion="1"
       offset_points="0.73932795,18.825897"
       sort_points="true"
       interpolator_type="CentripetalCatmullRom"
       interpolator_beta="0.75"
       start_linecap_type="round"
       linejoin_type="spiro"
       miter_limit="4"
       scale_width="1"
       end_linecap_type="round" />
    <inkscape:path-effect
       effect="simplify"
       id="path-effect122"
       is_visible="true"
       lpeversion="1"
       steps="1"
       threshold="0.0032025118"
       smooth_angles="0"
       helper_size="0"
       simplify_individual_paths="false"
       simplify_just_coalesce="false"
       step="1" />
    <inkscape:path-effect
       effect="powerstroke"
       id="path-effect117"
       is_visible="true"
       lpeversion="1"
       offset_points="0.38858972,18.825897"
       sort_points="true"
       interpolator_type="CentripetalCatmullRom"
       interpolator_beta="0.75"
       start_linecap_type="round"
       linejoin_type="spiro"
       miter_limit="4"
       scale_width="1"
       end_linecap_type="round" />
    <inkscape:path-effect
       effect="simplify"
       id="path-effect115"
       is_visible="true"
       lpeversion="1"
       steps="1"
       threshold="0.0032025118"
       smooth_angles="0"
       helper_size="0"
       simplify_individual_paths="false"
       simplify_just_coalesce="false"
       step="1" />
    <inkscape:path-effect
       effect="powerstroke"
       id="path-effect110"
       is_visible="true"
       lpeversion="1"
       offset_points="1.5171264,18.825897"
       sort_points="true"
       interpolator_type="CentripetalCatmullRom"
       interpolator_beta="0.75"
       start_linecap_type="round"
       linejoin_type="spiro"
       miter_limit="4"
       scale_width="1"
       end_linecap_type="round" />
    <inkscape:path-effect
       effect="simplify"
       id="path-effect108"
       is_visible="true"
       lpeversion="1"
       steps="1"
       threshold="0.0032025118"
       smooth_angles="0"
       helper_size="0"
       simplify_individual_paths="false"
       simplify_just_coalesce="false"
       step="1" />
    <rect
       x="112.54753"
       y="181.28751"
       width="97.633156"
       height="-61.581602"
       id="rect78" />
  </defs>
  <sodipodi:namedview
     id="base"
     pagecolor="#ffffff"
     bordercolor="#666666"
     borderopacity="1.0"
     inkscape:pageopacity="0.0"
     inkscape:pageshadow="2"
     inkscape:zoom="0.19763749"
     inkscape:cx="1145.5427"
     inkscape:cy="432.55719"
     inkscape:document-units="mm"
     inkscape:current-layer="layer1"
     inkscape:document-rotation="0"
     showgrid="false"
     inkscape:window-width="823"
     inkscape:window-height="727"
     inkscape:window-x="492"
     inkscape:window-y="23"
     inkscape:window-maximized="0" />
  <metadata
     id="metadata49">
    <rdf:RDF>
      <cc:Work
         rdf:about="">
        <dc:format>image/svg+xml</dc:format>
        <dc:type
           rdf:resource="http://purl.org/dc/dcmitype/StillImage" />
        <dc:title></dc:title>
      </cc:Work>
    </rdf:RDF>
  </metadata>
  <g
     inkscape:label="Слой 1"
     inkscape:groupmode="layer"
     id="layer1"
     style="display:inline">
    <path
       style="fill:none;stroke:#000000;stroke-width:0.264583px;stroke-linecap:butt;stroke-linejoin:miter;stroke-opacity:1"
       d="m -72.291444,-112.45336 1.33873,53.549218"
       id="path60" />
    <path
       style="fill:none;stroke:#000000;stroke-width:0.264583px;stroke-linecap:butt;stroke-linejoin:miter;stroke-opacity:1"
       d="m -38.823182,-53.549219 22.758416,-14.726036"
       id="path62" />
    <path
       style="fill:none;stroke:#000000;stroke-width:0.264583px;stroke-linecap:butt;stroke-linejoin:miter;stroke-opacity:1"
       d="m -72.291442,-112.45336 c 7.962707,-11.77876 7.889454,-3.96855 16.064762,-6.69365 0.239038,-0.0797 7.73507,-5.05761 8.032382,-5.35492 0.315542,-0.31554 -0.315539,-1.02319 0,-1.33873 3.039689,-3.03969 17.16279,3.04346 20.080959,4.01619 3.570487,1.19016 14.475752,1.08844 16.064765,2.67746 2.2689865,2.26899 -3.224519,25.493705 -4.016192,29.452068 -0.597313,2.986566 0.737883,6.419583 0,9.371113 -0.15306,0.612243 -1.139164,0.740034 -1.33873,1.338731 -0.968655,2.905966 1.188011,17.554217 0,18.742228 -1.674409,1.674408 -6.979249,1.720715 -9.371115,2.677459 -2.284994,-0.473665 -2.577097,1.957917 -4.016189,2.677462 -2.108581,1.05429 -15.294917,1.05429 -17.403498,0 -5.571474,-2.785737 1.431152,0.09242 -1.338728,-2.677462 -1.690204,-1.690201 -5.726446,-2.86322 -8.032385,-4.01619 -1.284859,-0.642429 -4.069281,0.428546 -5.354921,0 -1.386683,-0.462227 -2.688076,-2.013405 -4.016192,-2.677461 -0.798264,-0.399132 -2.046377,0.631084 -2.677461,0 -0.31554,-0.315542 0.315542,-1.023189 0,-1.338731 -0.946624,-0.946626 -4.278739,-1.312733 -4.01619,0 0.471286,2.356429 1.784974,4.462433 2.677461,6.693651"
       id="path64" />
    <path
       style="fill:none;stroke:#000000;stroke-width:0.264583px;stroke-linecap:butt;stroke-linejoin:miter;stroke-opacity:1"
       d="m 64.259062,-125.84066 c 0.936321,5.78987 4.389813,10.11835 6.693652,14.72603 0.404145,0.80829 -0.618848,3.39735 0,4.01619 0.315542,0.31554 1.023188,-0.31554 1.33873,0 0.35437,0.35437 0,3.46495 0,4.01619 0,10.486339 1.951559,25.049204 0,34.806995 -0.476313,2.381568 -2.012068,4.697482 -2.677459,6.693654 -0.428548,1.28564 0.64243,4.070062 0,5.354921 -0.412451,0.824902 -3.580005,9.8073 -2.677461,10.709844 2.406536,2.406536 25.792353,-2.796286 29.452069,-4.01619 2.333842,-0.777949 6.944207,0 9.371117,0 12.35896,0 25.86316,1.125085 36.14572,-4.016193 1.42798,-0.713988 3.92694,0.713989 5.35492,0 2.77665,-1.388324 11.20986,-4.354901 9.37112,-8.032382 -3.90576,-7.811521 -12.89785,-16.424587 -16.06477,-22.758418 -1.28627,-2.572546 -4.06865,-4.121108 -5.35492,-6.693654 -0.76964,-1.539277 -1.86359,-3.727177 -2.67746,-5.35492 -0.40415,-0.808292 0.61884,-3.397346 0,-4.016197 -0.31555,-0.31554 -1.02319,0.31555 -1.33873,0 -0.43385,-0.43384 -1.30743,-36.11442 -1.33873,-36.14572 -0.66937,-0.66936 -3.34683,0.66937 -4.0162,0 -0.31554,-0.31554 0.31555,-1.02319 0,-1.33873 -1.50082,-1.50083 -7.39687,0.98712 -9.37111,0 -10.18827,-5.09414 -29.947928,-0.42143 -38.823182,4.01619 -1.656006,0.82801 -14.715816,5.37536 -13.387306,8.03239 1.213914,2.42782 5.422429,0.59303 8.032382,1.33873 2.06343,0.58955 11.934135,10.48096 13.387306,13.3873 1.145468,2.29094 0.584568,15.4802 0,16.064767 -0.315542,0.315542 -1.023189,-0.315542 -1.338731,0 -0.946624,0.946624 0,2.677462 0,4.01619 0,8.621633 -1.338731,15.560352 -1.338731,24.097149 0,1.073994 -0.887807,8.483306 0,9.371113 2.478746,2.478746 27.191192,-5.354921 32.129532,-5.354921 1.7027,0 9.62607,1.083773 10.70984,0 0.31555,-0.315542 -0.31554,-1.023188 0,-1.33873 0.63109,-0.631084 1.8792,0.399132 2.67746,0 1.79304,-0.896517 1.85499,-3.193714 2.67747,-4.016193 2.76988,-2.76988 -0.10828,4.232746 2.67746,-1.33873 1.17424,-2.348484 -4.05178,-16.100351 -5.35493,-17.403496 -0.31554,-0.315542 -1.02318,0.315543 -1.33873,0 -0.63108,-0.631084 0.63109,-2.046377 0,-2.677461 -0.31554,-0.315542 -1.02318,0.315542 -1.33873,0 -0.63108,-0.631084 0.63109,-2.046378 0,-2.677459 -2.76988,-2.769883 0.10828,4.232743 -2.67746,-1.338731 -0.40567,-0.811353 -0.77774,-3.455207 -1.33873,-4.016192 -0.31554,-0.315542 -1.02319,0.315542 -1.33873,0 -0.63108,-0.631084 0.63109,-2.046378 0,-2.677466 -0.90125,-0.90125 -1.69178,-0.70609 -2.67746,-2.67746 -0.5573,-1.11461 0.84917,-4.50575 0,-5.35492 -0.31554,-0.31554 -1.02319,0.31554 -1.33873,0 -0.52162,-0.52162 0,-4.53797 0,-5.35492 0,-3.49554 -1.03689,-7.42871 -2.67746,-10.70984 -0.61259,-1.22519 0.90833,-4.44659 0,-5.35493 -0.31554,-0.31554 -1.02319,0.31555 -1.33873,0 -1.36474,-1.36474 1.47412,-2.60976 -1.33873,-4.01619 -3.46867,-1.73433 -18.229109,3.50307 -20.080957,5.35493 -0.901253,0.90125 -0.706102,1.69178 -2.677462,2.67746 -0.798263,0.39913 -1.879197,-0.39914 -2.677461,0 -1.221685,0.61084 -9.371113,7.07981 -9.371113,2.67746"
       id="path66" />
    <path
       style="fill:#000000;stroke-width:0.264583"
       id="path70"
       d="m 59.208905,109.54033 c -1.145826,8.38574 -3.1232,16.62523 -4.50985,24.97922 -1.890622,9.41112 -2.822027,18.96209 -4.071794,28.46506 -0.923642,6.60844 -1.215549,13.27116 -1.406962,19.93285 -0.117607,5.37889 -0.210632,10.75803 -0.278958,16.1377 -0.08002,3.63098 -0.230949,7.27579 0.787792,10.79327 1.048665,3.15769 2.633239,6.13136 4.207782,9.05683 1.751658,2.8983 4.108752,5.36626 6.500585,7.74032 2.22721,1.85915 4.457726,3.73058 6.770939,5.48406 1.903015,1.29829 3.890557,2.40417 6.009291,3.30248 1.531876,0.73414 2.889292,1.75158 4.386452,2.55125 1.143617,0.70606 2.317025,1.46023 3.638159,1.77831 0.934826,0.55699 1.865363,1.09914 2.911607,1.41552 0.90351,0.26218 1.846181,0.28232 2.778927,0.303 0.798131,-0.1816 2.092105,0.66313 2.974514,0.91254 1.258438,0.39084 2.600823,0.18349 3.8535,0.51821 1.487805,0.48172 2.967591,0.95866 4.446649,1.46489 1.942522,0.82644 3.940712,1.53883 5.840012,2.46512 2.18506,1.04792 4.16049,2.39181 6.08861,3.84298 2.9768,1.89571 5.20977,4.57381 7.3835,7.30192 3.27391,4.2491 5.7389,9.09204 7.83235,14.01406 1.73326,4.16219 3.36169,8.38639 4.45766,12.76575 0.0896,0.4178 0.17925,0.83558 0.26889,1.25338 0,0 17.25137,-9.37231 17.25137,-9.37231 v 0 c -0.13406,-0.40878 -0.26812,-0.81759 -0.40218,-1.22639 -1.45187,-4.32695 -3.08973,-8.59457 -4.92307,-12.77398 -2.1844,-5.04865 -4.64969,-10.03939 -7.9437,-14.46649 -2.07479,-2.99425 -4.29735,-5.92102 -7.33539,-8.00823 -2.01835,-1.45413 -3.91269,-3.05529 -6.20596,-4.09127 -1.91632,-1.12913 -4.04836,-1.74804 -5.99356,-2.82068 -1.4972,-0.41923 -2.84034,-1.15427 -4.36427,-1.48657 -1.56565,-0.60631 -2.27333,-0.74118 -3.96239,-0.73483 -1.18361,-0.1141 -2.23814,-0.45614 -3.14655,-1.26113 -0.8526,0.013 -1.70724,0.0393 -2.55892,0.0126 -0.96888,-0.0773 -1.881965,-0.28909 -2.646124,-0.94697 -1.095733,-0.73873 -2.579209,-0.69903 -3.630332,-1.61517 -1.468613,-0.96162 -3.084936,-1.71074 -4.548222,-2.68591 -1.962256,-0.99038 -4.085688,-1.63164 -5.899785,-2.92876 -2.322267,-1.58922 -4.411417,-3.5026 -6.663005,-5.19098 -2.260706,-2.24287 -4.616124,-4.43902 -6.31145,-7.16447 -1.46721,-2.83881 -2.89523,-5.73156 -3.866057,-8.78185 -0.927619,-3.33591 -0.739511,-6.75936 -0.772181,-10.19279 -0.07116,-5.30643 -0.152337,-10.61428 -0.02759,-15.92062 0.18464,-6.59233 0.576069,-13.17647 1.352137,-19.72842 0.878036,-9.37228 1.53977,-18.77576 3.423299,-28.0227 1.581081,-8.6793 3.6875,-17.22719 6.116698,-25.70817 0,0 -17.812427,8.63734 -17.812427,8.63734 z" />
    <path
       style="fill:#ff0000;stroke-width:0.264583"
       id="path72"
       d="m 52.735014,128.31131 c 0.20185,2.73069 0.15408,5.47878 0.09158,8.21505 -0.01778,3.04527 0.07017,6.09056 0.122346,9.13539 0.238551,4.87727 -0.129095,9.76803 0.22003,14.63719 0.269084,4.17683 1.566156,8.16176 2.630996,12.17782 0.837745,2.92075 2.05413,5.65691 3.7495,8.17405 1.740048,2.23874 3.684873,4.23953 5.951125,5.94101 2.650323,1.73961 5.382564,3.36551 8.130029,4.94943 2.263053,1.48745 4.618141,2.82219 6.948173,4.20078 2.118754,1.25386 4.141001,2.66522 6.188252,4.03159 2.614999,1.76006 5.281599,3.44458 7.812376,5.3256 3.11509,2.42648 6.061819,5.02873 8.859599,7.81336 3.33541,3.57406 6.26575,7.50071 9.15777,11.43476 2.56675,3.48491 4.86493,7.1593 7.40199,10.66276 0.60085,0.80676 1.24468,1.57391 1.81676,2.401 0,0 17.03844,-10.07345 17.03844,-10.07345 v 0 c -0.62927,-0.83828 -1.35523,-1.549 -2.07008,-2.3172 -2.74139,-3.33957 -5.19484,-6.92298 -7.71411,-10.431 -2.95697,-3.99723 -5.77473,-8.1141 -9.15739,-11.7735 -2.83367,-2.83817 -5.71792,-5.60974 -8.84853,-8.12283 -2.51301,-1.96996 -5.20473,-3.66338 -7.81596,-5.49527 -2.10225,-1.33802 -4.059731,-2.8926 -6.153575,-4.24231 -2.451335,-1.2173 -4.842967,-2.56622 -7.153888,-4.03014 -2.706886,-1.48908 -5.242589,-3.2834 -7.899911,-4.85314 -2.176674,-1.45541 -3.894502,-3.34212 -5.582229,-5.32867 -1.546807,-2.35092 -2.771799,-4.86862 -3.566046,-7.5762 -1.152531,-3.85553 -2.393559,-7.70434 -2.577751,-11.76283 -0.36118,-4.83468 -0.153109,-9.69654 -0.10024,-14.53993 0.05198,-3.08639 0.139388,-6.17325 0.122346,-9.26007 -0.06472,-2.76758 -0.104884,-5.5459 0.09158,-8.30838 0,0 -17.693174,9.01513 -17.693174,9.01513 z" />
    <path
       style="fill:#ff0000;stroke-width:0.264583"
       id="path74"
       d="m 78.170893,105.55289 c 0.205526,2.22324 -0.128084,4.45468 0.296617,6.64964 0.934627,3.05788 2.267577,6.02062 3.458443,8.99787 2.213337,5.47049 3.605434,11.24682 4.767939,17.02142 0.91957,4.92872 1.71957,9.86158 2.138577,14.85954 0.362046,5.10137 0.362808,10.2156 0.345911,15.32619 0.0059,3.47811 -0.08887,6.9569 -0.224475,10.43226 -0.275688,1.54971 0.08617,2.74239 0.722641,4.1229 0.45249,1.23624 1.361754,2.26467 2.165773,3.29002 1.353513,1.61734 2.549821,3.34976 3.824129,5.02837 1.70248,2.13203 3.346394,4.32401 5.136012,6.38517 1.87835,1.99125 3.80022,3.935 5.72954,5.87687 1.91344,1.65426 3.65919,3.50084 5.60627,5.11384 1.80905,1.23649 3.52255,2.58473 5.17808,4.01734 1.60757,1.36981 3.29758,2.63459 4.95131,3.94612 1.62483,1.08479 3.31953,2.06235 4.92148,3.18365 1.80886,1.35173 3.59115,2.74827 5.33198,4.1887 2.3848,1.97093 5.07342,3.50916 7.5788,5.31287 2.8789,2.05557 5.29641,4.61904 7.76644,7.12222 2.86637,2.96263 5.3236,6.24167 7.64389,9.63694 2.10005,3.00018 4.10796,6.05909 5.90966,9.24712 1.43461,2.85335 3.58018,5.24681 5.14223,8.01271 1.0915,1.80981 2.37989,3.49705 3.71941,5.12811 1.22262,1.54008 2.36771,3.13745 3.59003,4.67608 1.11063,1.44434 1.86815,3.09555 2.97274,4.54528 1.24804,1.34361 2.50378,2.67716 3.6939,4.07625 1.39398,1.48294 2.8968,2.85369 4.12702,4.48056 0.46713,1.07966 1.02819,2.11889 1.40133,3.24122 0.36281,1.73157 0.57198,3.42752 1.06952,5.13017 0.3019,1.65179 0.96376,3.16119 1.53325,4.72697 0.61941,1.8697 1.30836,3.69898 1.69873,5.63853 0.0382,0.23397 0.0764,0.46794 0.11458,0.70191 0,0 17.47407,-9.37207 17.47407,-9.37207 v 0 c -0.0626,-0.23741 -0.12513,-0.47482 -0.18769,-0.71223 -0.53517,-1.97257 -1.22926,-3.89072 -1.79349,-5.8547 -0.5556,-1.50365 -1.08608,-3.00167 -1.49684,-4.55491 -0.43926,-1.73685 -0.52525,-3.53173 -1.07098,-5.24205 -0.43753,-1.3529 -0.99138,-2.67645 -1.74159,-3.88858 -1.34767,-1.53567 -2.77242,-2.98257 -4.22305,-4.41741 -1.12127,-1.4402 -2.30352,-2.82734 -3.61524,-4.09612 -1.17494,-1.39898 -1.85136,-3.13608 -3.04533,-4.53009 -1.27034,-1.51556 -2.34031,-3.19945 -3.55823,-4.76076 -1.34345,-1.46448 -2.54462,-3.09125 -3.70255,-4.70758 -1.61016,-2.7363 -3.74718,-5.11496 -5.25492,-7.92131 -1.81744,-3.2554 -3.85051,-6.36738 -6.07423,-9.36412 -2.42112,-3.43763 -4.89008,-6.85886 -7.73833,-9.96056 -2.5135,-2.5896 -4.99411,-5.21652 -7.87415,-7.416 -2.41325,-1.84631 -5.02561,-3.3747 -7.42657,-5.2346 -1.69557,-1.53731 -3.44492,-3.03359 -5.2975,-4.36858 -1.51131,-1.21046 -3.18959,-2.23266 -4.86983,-3.19488 -1.66833,-1.24248 -3.34419,-2.46122 -4.95225,-3.77636 -1.64755,-1.50951 -3.36073,-2.94139 -5.23075,-4.16927 -2.03483,-1.38235 -3.67786,-3.27502 -5.54143,-4.8709 -1.97034,-1.83839 -3.81005,-3.81343 -5.69777,-5.73556 -1.8118,-1.95339 -3.27364,-4.21486 -5.01647,-6.23358 -1.21369,-1.71685 -2.34628,-3.48429 -3.64373,-5.1405 -0.6786,-0.96944 -1.5426,-1.84141 -1.91286,-2.98653 -0.50788,-1.05864 -0.479,-2.09123 -0.47644,-3.26261 -0.12036,-3.40768 -0.19574,-6.81821 -0.20435,-10.22797 -0.0582,-5.1549 -0.076,-10.31594 -0.43136,-15.46099 -0.45579,-5.07227 -1.35852,-10.06428 -2.2956,-15.06747 -1.43479,-5.79913 -2.91696,-11.59937 -4.86253,-17.25136 -0.974135,-2.95229 -1.964193,-5.91205 -2.832939,-8.89047 -0.198194,-2.14355 -0.109376,-4.314092 -0.02365,-6.461844 0,0 -17.693175,9.015124 -17.693175,9.015124 z" />
    <text
       xml:space="preserve"
       id="text76"
       style="font-style:normal;font-weight:normal;font-size:10.58329999999999949px;line-height:1.25;font-family:sans-serif;white-space:pre;shape-inside:url(#rect78);fill:#000000;fill-opacity:1;stroke:none;"><tspan
         x="0"
         y="0"><tspan>Alena's picture</tspan></tspan></text>
    <text
       xml:space="preserve"
       style="font-style:normal;font-weight:normal;font-size:10.5833px;line-height:1.25;font-family:sans-serif;fill:#000000;fill-opacity:1;stroke:none;stroke-width:0.264583"
       x="160.64766"
       y="148.59909"
       id="text84"><tspan
         sodipodi:role="line"
         id="tspan82"
         x="160.64766"
         y="148.59909"
         style="stroke-width:0.264583">Alena's picture</tspan></text>
    <path
       style="fill:#000000;stroke:none;stroke-width:1px;stroke-linecap:butt;stroke-linejoin:miter;stroke-opacity:1"
       d="m -526.21595,1259.8824 87.59553,-303.16376"
       id="path135" />
    <path
       style="fill:#000000;stroke:none;stroke-width:1px;stroke-linecap:butt;stroke-linejoin:miter;stroke-opacity:1"
       d="M -541.39526,809.563 -652.71017,748.84578"
       id="path137" />
    <path
       style="fill:#000000;stroke:none;stroke-width:1px;stroke-linecap:butt;stroke-linejoin:miter;stroke-opacity:1"
       d="m -652.71017,748.84578 h -15.17931"
       id="path139" />
    <path
       style="fill:#000000;stroke:none;stroke-width:1px;stroke-linecap:butt;stroke-linejoin:miter;stroke-opacity:1"
       d="M -784.26416,936.05722 -546.45503,-55.657456"
       id="path141" />
    <ellipse
       style="fill:#ff0000;fill-opacity:0.180392;stroke-width:0.264583"
       id="path988"
       cx="105.75971"
       cy="28.782705"
       rx="46.855564"
       ry="36.81509" />
    <path
       sodipodi:type="star"
       style="fill:#000080;fill-opacity:0.117647;stroke-width:0.264583"
       id="path1099"
       sodipodi:sides="3"
       sodipodi:cx="377.522"
       sodipodi:cy="-14.726035"
       sodipodi:r1="67.74823"
       sodipodi:r2="33.874115"
       sodipodi:arg1="0.51669514"
       sodipodi:arg2="1.5638927"
       inkscape:flatsided="false"
       inkscape:rounded="0"
       inkscape:randomized="0"
       d="m 436.42615,18.742228 -58.67029,0.405045 -58.67029,0.405044 28.98436,-51.012484 28.98437,-51.012484 29.68592,50.60744 z"
       inkscape:transform-center-x="-0.23384797"
       inkscape:transform-center-y="-16.734131" />
    <rect
       style="fill:#0000ff;fill-rule:evenodd;stroke-width:0.264583"
       id="rect1103"
       width="34.806992"
       height="207.50322"
       x="358.77979"
       y="20.080957"
       ry="11.3792" />
  </g>
</svg>
